<?xml version="1.0" encoding="UTF-8" standalone="no"?>
<svg
   xmlns:dc="http://purl.org/dc/elements/1.1/"
   xmlns:cc="http://creativecommons.org/ns#"
   xmlns:rdf="http://www.w3.org/1999/02/22-rdf-syntax-ns#"
   xmlns:svg="http://www.w3.org/2000/svg"
   xmlns="http://www.w3.org/2000/svg"
   version="1.1"
   id="svg2"
   viewBox="0 0 71.000001 100"
   height="100"
   width="71">
  <defs
     id="defs4" />
  <metadata
     id="metadata7">
    <rdf:RDF>
      <cc:Work
         rdf:about="">
        <dc:format>image/svg+xml</dc:format>
        <dc:type
           rdf:resource="http://purl.org/dc/dcmitype/StillImage" />
        <dc:title></dc:title>
      </cc:Work>
    </rdf:RDF>
  </metadata>
  <g
     transform="translate(0,-952.36214)"
     id="layer1">
    <g
       transform="matrix(0.09466667,0,0,0.09523811,0,952.13704)"
       id="g4239">
      <path
         style="fill:#000000;fill-opacity:1;stroke:none;stroke-width:8;stroke-miterlimit:4;stroke-dasharray:none;stroke-opacity:1"
         d="m 0,2.3621221 750,0 0,1049.9998779 -750,0 z"
         id="rect4255" />
      <path
         style="fill:#ffffff;fill-opacity:1;stroke:none"
         d="m 125,152.36221 100,-75.000004 150,0 0,150.000004 50,0 0,-150.000004 225,0 -10e-6,150.000004 -149.99999,0 0,50 75,0 74.99999,50 10e-6,500 -400,-10e-6 0,-149.99999 -125,0 0,-375 175,0 0,-50 -175,0 z"
         id="tapis" />
      <path
         style="fill:#000000;stroke:none"
         d="m 350,352.36224 25,-25.00003 50,0 25,25.00003 0,124.99997 -100,0 z"
         id="bloc_interieur_haut" />
      <path
         style="fill:#000000;stroke:none"
         d="m 450,677.36221 -25,25.00003 -50,0 -25,-25.00003 0,-124.99997 100,0 z"
         id="bloc_interieur_bas" />
      <path
         style="fill:#ff0000;stroke:none"
         d="m 99.999999,477.36213 25.000001,0 0,200.00001 -25,24.99999 z"
         id="secteur2"
         transform="translate(-1.6801075e-6,1.63e-6)" />
      <path
         style="fill:#ff0000;stroke:none"
         d="m 99.999999,702.36214 25.000001,-25 125,0 0,25 z"
         id="secteur1" />
      <path
         style="fill:#ff0000;stroke:none"
         d="m 99.999999,277.36213 25.000001,25 0,175 -25.000001,0 z"
         id="secteur3"
         transform="translate(-3.44086e-7,-1.87e-6)" />
      <g
         id="legendSecteur3"
         transform="translate(10,18.571429)">
        <path
           id="secteur3-9"
           d="m 99.999999,367.36213 5.000001,-5 55,55 -5,5 z"
           style="fill:#000000;stroke:none" />
        <rect
           y="378.07642"
           x="156.78571"
           height="75"
           width="150"
           id="rect3411"
           style="fill:#ffffff;fill-opacity:1;stroke:#000000;stroke-width:8;stroke-miterlimit:4;stroke-dasharray:none;stroke-opacity:1" />
        <text
           id="text4213"
           y="408.89499"
           x="230.35722"
           style="font-style:normal;font-variant:normal;font-weight:bold;font-stretch:normal;font-size:25px;line-height:125%;font-family:monospace;-inkscape-font-specification:'monospace Bold';text-align:center;letter-spacing:0px;word-spacing:0px;text-anchor:middle;fill:#000000;fill-opacity:1;stroke:none;stroke-width:1px;stroke-linecap:butt;stroke-linejoin:miter;stroke-opacity:1"
           xml:space="preserve"><tspan
             y="408.89499"
             x="230.35722"
             id="tspan4215">secteur</tspan><tspan
             id="tspan4217"
             y="440.14499"
             x="230.35722">3</tspan></text>
        <circle
           r="8.0357141"
           cy="363.79071"
           cx="102.85715"
           id="path3379-0-4-7"
           style="fill:#000000;stroke:none" />
      </g>
      <g
         transform="translate(9.7857191,196.92859)"
         id="legendSecteur2">
        <path
           id="secteur3-9-5"
           d="m 99.999999,367.36213 5.000001,-5 55,55 -5,5 z"
           style="fill:#000000;stroke:none" />
        <rect
           y="378.07642"
           x="156.78571"
           height="75"
           width="150"
           id="rect3411-8"
           style="fill:#ffffff;fill-opacity:1;stroke:#000000;stroke-width:8;stroke-miterlimit:4;stroke-dasharray:none;stroke-opacity:1" />
        <text
           id="text4213-6"
           y="408.89499"
           x="230.35722"
           style="font-style:normal;font-variant:normal;font-weight:bold;font-stretch:normal;font-size:25px;line-height:125%;font-family:monospace;-inkscape-font-specification:'monospace Bold';text-align:center;letter-spacing:0px;word-spacing:0px;text-anchor:middle;fill:#000000;fill-opacity:1;stroke:none;stroke-width:1px;stroke-linecap:butt;stroke-linejoin:miter;stroke-opacity:1"
           xml:space="preserve"><tspan
             y="408.89499"
             x="230.35722"
             id="tspan4215-8">secteur</tspan><tspan
             id="tspan4217-0"
             y="440.14499"
             x="230.35722">2</tspan></text>
        <circle
           r="8.0357141"
           cy="365.43356"
           cx="104.49999"
           id="path3379-0-4-0"
           style="fill:#000000;stroke:none" />
      </g>
      <g
         transform="translate(130.35715,325.00001)"
         id="legendSecteur1">
        <circle
           r="8.0357141"
           cy="365.04071"
           cx="101.96429"
           id="path3379-0-4"
           style="fill:#000000;stroke:none" />
        <path
           id="secteur3-9-5-1"
           d="m 99.999999,367.36213 5.000001,-5 55,55 -5,5 z"
           style="fill:#000000;stroke:none" />
        <rect
           y="378.07642"
           x="156.78571"
           height="75"
           width="150"
           id="rect3411-8-5"
           style="fill:#ffffff;fill-opacity:1;stroke:#000000;stroke-width:8;stroke-miterlimit:4;stroke-dasharray:none;stroke-opacity:1" />
        <text
           id="text4213-6-6"
           y="408.89499"
           x="230.35722"
           style="font-style:normal;font-variant:normal;font-weight:bold;font-stretch:normal;font-size:25px;line-height:125%;font-family:monospace;-inkscape-font-specification:'monospace Bold';text-align:center;letter-spacing:0px;word-spacing:0px;text-anchor:middle;fill:#000000;fill-opacity:1;stroke:none;stroke-width:1px;stroke-linecap:butt;stroke-linejoin:miter;stroke-opacity:1"
           xml:space="preserve"><tspan
             y="408.89499"
             x="230.35722"
             id="tspan4215-8-7">secteur</tspan><tspan
             id="tspan4217-0-7"
             y="440.14499"
             x="230.35722">1</tspan></text>
      </g>
      <path
         id="detectorSecteur1"
         d="m 125,727.36214 0,-50 125,0 0,50 z"
         style="fill:#ff0000;fill-opacity:0;stroke:none" />
      <path
         id="detectorSecteur2"
         d="m 50,477.36213 75,0 0,200.00001 -75,1e-5 z"
         style="fill:#ff0000;fill-opacity:0;stroke:none" />
      <path
         id="detectorSecteur3"
         d="m 49.999999,302.36213 75.000001,0 0,175 -75.000001,0 z"
         style="fill:#ff0000;fill-opacity:0;stroke:none" />
      <path
         style="fill:#ff0000;stroke:none"
         d="m 300,277.36213 0,25 -175,0 -25.000001,-25 z"
         id="secteur4" />
      <g
         id="legendSecteur4"
         transform="translate(166.01015,-73.83756)">
        <path
           id="path4227"
           d="m 99.999999,367.36213 5.000001,-5 55,55 -5,5 z"
           style="fill:#000000;stroke:none" />
        <rect
           y="378.07642"
           x="156.78571"
           height="75"
           width="150"
           id="rect4229"
           style="fill:#ffffff;fill-opacity:1;stroke:#000000;stroke-width:8;stroke-miterlimit:4;stroke-dasharray:none;stroke-opacity:1" />
        <text
           id="text4231"
           y="408.89499"
           x="230.35722"
           style="font-style:normal;font-variant:normal;font-weight:bold;font-stretch:normal;font-size:25px;line-height:125%;font-family:monospace;-inkscape-font-specification:'monospace Bold';text-align:center;letter-spacing:0px;word-spacing:0px;text-anchor:middle;fill:#000000;fill-opacity:1;stroke:none;stroke-width:1px;stroke-linecap:butt;stroke-linejoin:miter;stroke-opacity:1"
           xml:space="preserve"><tspan
             y="408.89499"
             x="230.35722"
             id="tspan4233">secteur</tspan><tspan
             id="tspan4235"
             y="440.14499"
             x="230.35722">4</tspan></text>
        <circle
           r="8.0357141"
           cy="363.79071"
           cx="102.85715"
           id="circle4237"
           style="fill:#000000;stroke:none" />
      </g>
      <path
         id="detectorSecteur4"
         d="m 300,277.36213 0,25 -175,0 -25.000001,-25 z"
         style="fill:#ff0000;fill-opacity:0;stroke:none" />
    </g>
  </g>
</svg>
